<?xml version="1.0" standalone="no"?>
<!DOCTYPE svg PUBLIC "-//W3C//DTD SVG 20010904//EN"
 "http://www.w3.org/TR/2001/REC-SVG-20010904/DTD/svg10.dtd">
<svg version="1.0" xmlns="http://www.w3.org/2000/svg"
 width="1280.000000pt" height="907.000000pt" viewBox="0 0 1280.000000 907.000000"
 preserveAspectRatio="xMidYMid meet">
<metadata>
Created by potrace 1.15, written by Peter Selinger 2001-2017
</metadata>
<g transform="translate(0.000000,907.000000) scale(0.100000,-0.100000)"
fill="#000000" stroke="none">
<path d="M7584 9034 l-29 -36 -325 -3 c-179 -1 -336 -6 -350 -10 -21 -6 -23
-5 -12 6 26 28 11 32 -105 25 -572 -33 -1143 -115 -1615 -233 l-148 -37 0 -48
0 -48 -555 0 -556 0 -24 -25 c-22 -22 -25 -32 -25 -105 l0 -80 -101 0 -102 0
6 51 c8 65 -10 111 -50 128 -21 9 -106 11 -309 9 l-281 -3 -36 -27 c-49 -38
-85 -120 -98 -221 -6 -45 -14 -88 -18 -96 -4 -8 -99 -56 -212 -107 -282 -128
-259 -111 -259 -184 l0 -60 -262 0 c-259 0 -262 0 -303 -24 -37 -22 -74 -65
-102 -119 -9 -16 -16 -10 -63 47 -81 100 -69 96 -298 96 -190 0 -201 -1 -233
-23 -31 -21 -90 -89 -102 -119 -4 -9 -19 2 -44 32 -21 25 -54 60 -72 78 l-35
32 -196 0 -196 0 -58 -35 -59 -35 -38 35 c-22 19 -49 35 -62 35 -43 -1 -107
-39 -182 -112 l-76 -73 45 -51 c25 -28 67 -66 94 -83 l49 -31 196 0 c192 0
196 0 224 24 16 13 35 36 43 50 l14 26 45 -49 46 -49 248 -7 c220 -7 253 -6
292 10 25 9 54 28 64 42 l20 25 34 -35 35 -34 239 -7 c275 -9 306 -4 351 50
l29 35 40 -41 c37 -36 46 -40 90 -40 28 0 78 -3 112 -6 l61 -7 0 -52 0 -52
238 -108 c130 -60 238 -109 240 -110 1 -1 7 -40 12 -85 14 -119 35 -183 74
-224 l33 -36 303 0 302 0 29 31 c16 17 33 48 39 70 l11 39 94 0 95 0 0 -73 c0
-66 3 -76 26 -98 l26 -24 554 -3 554 -2 0 -30 c0 -24 43 -72 293 -323 160
-161 335 -327 387 -369 373 -297 769 -444 1393 -515 128 -15 221 -17 587 -14
239 2 527 4 640 4 l205 1 98 -33 c131 -43 227 -61 380 -68 l128 -6 -3 -58 c-1
-34 2 -63 9 -70 6 -6 43 -17 83 -25 135 -25 205 -79 261 -198 42 -89 59 -189
69 -391 10 -202 20 -267 57 -369 70 -194 187 -282 395 -293 l96 -6 29 -41 c26
-37 44 -48 149 -90 65 -27 134 -60 152 -73 37 -28 65 -79 115 -214 106 -282
173 -616 227 -1128 19 -186 19 -195 2 -224 -9 -17 -78 -81 -152 -141 -145
-120 -180 -167 -180 -239 0 -59 25 -103 73 -126 79 -38 231 -61 404 -61 l158
-1 240 -148 240 -148 86 43 85 42 344 -763 343 -763 91 43 c173 81 311 147
314 150 2 2 -414 1504 -454 1637 -4 13 9 25 54 47 40 20 61 38 65 53 14 54 78
467 97 618 57 461 74 800 67 1285 -10 681 -80 1228 -238 1874 -155 633 -368
1202 -702 1869 -131 262 -141 287 -145 348 -4 64 -3 68 35 123 87 124 140 245
169 388 14 66 14 75 -2 108 -49 103 -281 183 -729 250 -136 21 -151 21 -160 7
-25 -39 -56 -62 -83 -62 -39 0 -56 22 -49 65 l6 34 -47 6 c-26 4 -71 10 -100
14 -52 8 -54 7 -63 -18 -16 -46 -26 -56 -55 -56 -28 0 -29 2 -28 42 1 47 2 47
-111 58 -33 4 -67 9 -76 11 -12 3 -18 -6 -25 -37 -11 -51 -32 -67 -71 -53 -25
9 -28 14 -27 57 0 53 7 48 -100 67 -84 14 -84 14 -96 -29 -5 -21 -17 -44 -26
-52 -15 -12 -69 -17 -80 -7 -8 9 -8 39 -1 79 l7 36 -122 17 c-454 60 -1099 96
-1729 96 l-366 0 -29 -36z"/>
</g>
</svg>
